<svg width="149" height="28" fill="none" xmlns="http://www.w3.org/2000/svg"><g clip-path="url(#a)"><path d="M60.469 11.595c.036 3.301 2.991 4.397 3.015 4.41-.024.072-.474 1.57-1.556 3.105-.936 1.328-1.909 2.655-3.441 2.68-1.508.024-1.994-.865-3.709-.865-1.726 0-2.261.84-3.684.89-1.483.048-2.602-1.438-3.55-2.766-1.933-2.704-3.405-7.649-1.423-10.986.985-1.656 2.748-2.704 4.657-2.74 1.447-.025 2.821.95 3.709.95.887 0 2.553-1.17 4.304-1 .73.025 2.797.293 4.11 2.169-.11.06-2.456 1.388-2.432 4.153zm-2.833-8.112c.79-.925 1.313-2.204 1.167-3.483-1.13.049-2.505.73-3.307 1.656-.73.817-1.362 2.12-1.192 3.374 1.265.098 2.554-.62 3.332-1.547zM69.01 1.902a44.32 44.32 0 011.931-.265c.702-.084 1.477-.12 2.313-.12 1.206 0 2.24.144 3.113.421.873.289 1.587.686 2.153 1.228.48.47.861 1.035 1.132 1.673.27.65.406 1.396.406 2.24 0 1.022-.185 1.913-.554 2.684a5.488 5.488 0 01-1.513 1.926c-.64.517-1.403.902-2.288 1.167a10.48 10.48 0 01-2.892.386c-.947 0-1.734-.073-2.374-.205v8.475h-1.415V1.902h-.012zm1.415 9.895A6.22 6.22 0 0071.57 12c.418.037.873.06 1.353.06 1.809 0 3.199-.408 4.195-1.24.997-.818 1.489-2.033 1.489-3.623 0-.77-.135-1.432-.394-1.998a3.575 3.575 0 00-1.107-1.396 5.092 5.092 0 00-1.71-.819 8.332 8.332 0 00-2.202-.277c-.64 0-1.194.024-1.661.073-.468.048-.837.108-1.107.156v8.86zm20.877 6.356c0 .566.012 1.144.025 1.71.024.565.086 1.119.184 1.648h-1.328l-.21-1.998h-.061a4.6 4.6 0 01-.69.819 5.01 5.01 0 01-.97.746c-.37.229-.788.41-1.268.542a5.677 5.677 0 01-1.55.205c-.701 0-1.317-.109-1.846-.337-.529-.23-.971-.518-1.304-.88a3.388 3.388 0 01-.762-1.251 4.065 4.065 0 01-.259-1.409c0-1.673.714-2.949 2.153-3.852 1.44-.902 3.593-1.336 6.484-1.3v-.385c0-.373-.037-.794-.111-1.276a3.955 3.955 0 00-.468-1.372 2.973 2.973 0 00-1.082-1.084c-.48-.289-1.132-.445-1.956-.445a6.4 6.4 0 00-1.846.277 6.06 6.06 0 00-1.673.782l-.455-1.035a6.86 6.86 0 011.98-.927 8.267 8.267 0 012.141-.277c1.01 0 1.821.169 2.448.506.628.337 1.132.77 1.49 1.3.356.53.602 1.12.737 1.781a9.74 9.74 0 01.197 1.963v5.549zm-1.415-4.201a20.199 20.199 0 00-2.386.084c-.837.084-1.6.253-2.3.518-.702.265-1.28.65-1.748 1.167-.455.506-.689 1.192-.689 2.035 0 .999.296 1.733.874 2.203.578.47 1.23.71 1.956.71.578 0 1.107-.085 1.562-.24a4.223 4.223 0 001.206-.639c.344-.265.627-.566.86-.903a4.13 4.13 0 00.53-1.035c.099-.397.148-.674.148-.855l-.013-3.045zm4.17-6.573l3.667 9.185a39.376 39.376 0 011.058 3.07h.062c.135-.434.295-.915.48-1.457a39.48 39.48 0 01.602-1.661l3.433-9.125h1.501l-4.183 10.365a116.4 116.4 0 01-1.194 2.985c-.369.89-.75 1.697-1.131 2.42a16.804 16.804 0 01-1.157 1.902 7.885 7.885 0 01-1.304 1.444c-.566.494-1.083.855-1.55 1.072-.468.228-.787.373-.947.421l-.48-1.144c.357-.156.763-.36 1.205-.614.443-.252.874-.59 1.292-.999.357-.349.763-.818 1.194-1.396.43-.578.812-1.276 1.156-2.107.123-.313.185-.517.185-.614 0-.132-.062-.349-.185-.614L92.558 7.415h1.501V7.38z" fill="#000"/></g><defs><clipPath id="a"><path fill="#fff" d="M0 0H149V28H0z"/></clipPath></defs></svg>