<svg width="42" height="43" fill="none" xmlns="http://www.w3.org/2000/svg"><g clip-path="url(#a)" fill="#985293"><path d="M32.88 21.5L18.06 6.68a3.62 3.62 0 115.12-5.12l17.38 17.38a3.62 3.62 0 010 5.12L23.18 41.44a3.62 3.62 0 11-5.12-5.12L32.88 21.5z"/><path d="M19.208 22l-9.526-9.527a2.328 2.328 0 113.291-3.291l11.173 11.172a2.328 2.328 0 010 3.292L12.973 34.818a2.328 2.328 0 01-3.291-3.291L19.208 22z"/></g><defs><clipPath id="a"><path fill="#fff" transform="rotate(-90 21.25 21.25)" d="M0 0H42V42H0z"/></clipPath></defs></svg>