<svg width="81" height="81" fill="none" xmlns="http://www.w3.org/2000/svg"><path d="M78.105 69.564s-5.03 4.885-6.262 6.317C69.835 77.999 67.469 79 64.368 79c-.298 0-.616 0-.914-.02-5.904-.372-11.39-2.648-15.506-4.59-11.251-5.376-21.131-13.007-29.341-22.678C11.828 43.649 7.296 36.194 4.294 28.19 2.445 23.305 1.77 19.5 2.068 15.909c.199-2.295 1.093-4.198 2.743-5.827l6.779-6.69C12.564 2.49 13.598 2 14.61 2c1.253 0 2.267.745 2.903 1.373l.06.06c1.212 1.117 2.365 2.275 3.577 3.51.617.628 1.253 1.256 1.889 1.904l5.427 5.355c2.107 2.08 2.107 4.002 0 6.082-.576.569-1.133 1.138-1.71 1.687-1.67 1.687-.358.393-2.087 1.923-.04.039-.08.059-.1.098-1.71 1.687-1.391 3.335-1.033 4.453l.06.177c1.41 3.374 3.399 6.552 6.42 10.338l.02.02C35.524 45.65 41.31 50.849 47.69 54.83c.815.51 1.65.922 2.445 1.314.715.354 1.391.687 1.968 1.04.08.04.159.098.238.137.676.334 1.312.491 1.968.491 1.65 0 2.684-1.02 3.022-1.354l3.896-3.845c.676-.667 1.75-1.471 3.002-1.471 1.233 0 2.246.765 2.863 1.432l.04.039 10.953 10.81c2.047 2 .02 6.14.02 6.14z" stroke="#985293" stroke-width="4" stroke-linecap="round" stroke-linejoin="round"/></svg>