<svg width="101" height="81" fill="none" xmlns="http://www.w3.org/2000/svg"><path d="M88.222 31.441V11.06C88.222 6.056 83.397 2 77.444 2H12.778C6.825 2 2 6.056 2 11.059v35.447c0 5.003 4.825 9.06 10.778 9.06h8.435V74.47l22.492-18.906h1.406m27.823 11.62L86.992 79V67.184h1.23c5.953 0 10.778-4.056 10.778-9.059v-15.36c0-5.003-4.825-9.06-10.778-9.06H55.89c-5.953 0-10.778 4.057-10.778 9.06v15.36c0 5.003 4.826 9.06 10.778 9.06h17.045z" stroke="#985293" stroke-width="3" stroke-linecap="round" stroke-linejoin="round"/></svg>