<svg width="53" height="52" fill="none" xmlns="http://www.w3.org/2000/svg"><rect x=".309" width="52" height="52" rx="26" fill="#985293"/><g clip-path="url(#a)"><path d="M26.31 17.5c-2.307 0-2.597.01-3.504.051-.906.043-1.523.185-2.064.395a4.162 4.162 0 00-1.506.98 4.173 4.173 0 00-.98 1.507c-.21.54-.354 1.158-.396 2.06-.04.91-.05 1.198-.05 3.508 0 2.308.01 2.597.05 3.503.043.905.185 1.523.396 2.063.217.56.508 1.033.98 1.506.472.473.946.764 1.505.98.542.211 1.158.355 2.063.396.908.04 1.197.051 3.505.051 2.31 0 2.597-.01 3.505-.051.904-.042 1.523-.185 2.064-.395a4.16 4.16 0 001.504-.98c.473-.474.763-.948.981-1.506.21-.541.353-1.159.395-2.064.04-.906.051-1.195.051-3.504s-.01-2.598-.05-3.505c-.043-.904-.187-1.523-.396-2.063a4.173 4.173 0 00-.98-1.505 4.156 4.156 0 00-1.506-.98c-.542-.211-1.16-.355-2.065-.396-.907-.04-1.195-.051-3.505-.051h.003m-.762 1.532h.762c2.27 0 2.539.008 3.434.049.83.037 1.28.176 1.58.292.396.154.68.34.977.637.297.297.481.58.635.977.117.299.255.75.292 1.578.042.896.05 1.164.05 3.433 0 2.268-.008 2.538-.05 3.434-.037.829-.176 1.278-.292 1.578-.136.369-.354.702-.636.976-.298.298-.58.481-.978.635-.297.117-.748.255-1.578.294-.895.04-1.164.05-3.434.05-2.27 0-2.539-.01-3.435-.05-.828-.038-1.278-.177-1.578-.294a2.633 2.633 0 01-.977-.635 2.635 2.635 0 01-.637-.977c-.116-.299-.256-.75-.293-1.578-.04-.896-.049-1.165-.049-3.435s.009-2.537.05-3.433c.038-.829.176-1.28.293-1.58.154-.395.338-.68.636-.977.297-.297.58-.48.977-.635.3-.117.75-.255 1.578-.293.785-.036 1.088-.047 2.672-.048v.002zm5.3 1.411a1.02 1.02 0 100 2.041 1.02 1.02 0 000-2.04zm-4.538 1.192a4.366 4.366 0 10-.136 8.73 4.366 4.366 0 00.136-8.73zm0 1.531A2.835 2.835 0 0129.144 26a2.835 2.835 0 01-2.834 2.834A2.835 2.835 0 0123.477 26a2.835 2.835 0 012.833-2.834z" fill="#fff"/></g><defs><clipPath id="a"><path fill="#fff" transform="translate(17.31 17)" d="M0 0H18V18H0z"/></clipPath></defs></svg>