<svg width="53" height="52" fill="none" xmlns="http://www.w3.org/2000/svg"><rect x=".309" width="52" height="52" rx="26" fill="#985293"/><g clip-path="url(#a)"><path d="M21.617 33.282h-3.523V21.938h3.523m-1.764-1.548c-1.126 0-2.04-.933-2.04-2.06a2.041 2.041 0 014.08 0c0 1.127-.914 2.06-2.04 2.06zm14.949 12.892h-3.515V27.76c0-1.316-.027-3.004-1.832-3.004-1.832 0-2.112 1.43-2.112 2.91v5.616h-3.52V21.938h3.38v1.547h.049c.47-.891 1.619-1.832 3.333-1.832 3.565 0 4.22 2.348 4.22 5.398v6.232" fill="#fff"/></g><defs><clipPath id="a"><path fill="#fff" transform="translate(17.81 16.29)" d="M0 0H17V19.42H0z"/></clipPath></defs></svg>