<svg width="169" height="63" fill="none" xmlns="http://www.w3.org/2000/svg"><path stroke="#985293" stroke-width="4" d="M0 61L169 61"/><path d="M142.166 34.616c-1.078-1.372-3.054-1.513-3.877.025l-6.364 11.894c-1.782 3.331.631 7.36 4.409 7.36h24.321c3.777 0 6.19-4.028 4.408-7.359l-20.49-38.298c-1.884-3.521-6.932-3.522-8.817-.001L118.34 40.76a.243.243 0 01-.273.121.233.233 0 01-.18-.227V16.378c0-.984-.531-2.012-1.267-2.666-2.221-1.972-5.62-.303-5.62 2.667V49c0 2.762 2.239 5.013 5 4.997.992-.006 1.981-.02 2.969-.054.355-.013.796-.604 1.019-1.024 4.345-8.064 8.666-16.141 12.988-24.215l2.779-5.19c1.884-3.522 6.931-3.522 8.815 0l8.613 16.099c1.782 3.33-.631 7.36-4.409 7.36h-4.196c-2.131 0-3.754-2.431-2.463-4.128 2.124-2.792 2.264-5.425.051-8.23z" fill="#000"/><path d="M142.166 34.616c-1.079-1.374-3.053-1.515-3.877.025l-7.028 13.136c-1.481 2.767.519 6.118 3.651 6.118h27.164c3.132 0 5.132-3.35 3.651-6.117C158.411 34.1 151.133 20.5 143.816 6.823c-1.562-2.92-5.739-2.921-7.302-.001L118.34 40.76a.243.243 0 01-.273.121.234.234 0 01-.18-.228V16.385c0-.988-.533-2.02-1.271-2.676-2.222-1.972-5.616-.299-5.616 2.677v33.45c0 2.295 1.855 4.167 4.143 4.164 1.28-.002 2.553-.014 3.826-.057.355-.013.796-.604 1.019-1.024 4.345-8.064 8.666-16.141 12.988-24.215 1.174-2.19 2.346-4.38 3.536-6.606 1.563-2.92 5.738-2.92 7.3 0l10.035 18.757c1.481 2.767-.519 6.117-3.651 6.117h-5.627c-2.126 0-3.744-2.432-2.454-4.127 2.124-2.792 2.264-5.425.051-8.23z" fill="#000"/><circle cx="115" cy="6" r="5" fill="#985293"/><path d="M9 54.5h1a4 4 0 004-4V26.373a4 4 0 00-1.44-3.072l-1-.834C8.956 20.297 5 22.15 5 25.54V50.5a4 4 0 004 4zM26.716 32.216L6.654 12.154A3.939 3.939 0 015.5 9.369c0-3.49 4.201-5.255 6.694-2.814L26.73 20.788a4 4 0 005.568.029L47.23 6.493C49.774 4.053 54 5.856 54 9.379V50.5a4 4 0 01-4 4h-.5a4 4 0 01-4-4V28.944c0-3.533-4.246-5.331-6.783-2.873l-6.39 6.19a4 4 0 01-5.61-.045zM62 54.5h1a4 4 0 004-4V26.373a4 4 0 00-1.44-3.072l-1-.834C61.956 20.297 58 22.15 58 25.54V50.5a4 4 0 004 4zM79.716 32.216L59.654 12.154A3.938 3.938 0 0158.5 9.369c0-3.49 4.201-5.255 6.694-2.814L79.73 20.788a4 4 0 005.568.029L100.23 6.493c2.543-2.44 6.769-.637 6.769 2.886V50.5a4 4 0 01-4 4h-.5a4 4 0 01-4-4V28.944c0-3.533-4.246-5.331-6.783-2.873l-6.39 6.19a4 4 0 01-5.61-.045z" fill="#000"/></svg>