<svg width="187" height="74" fill="none" xmlns="http://www.w3.org/2000/svg"><path stroke="#985293" stroke-width="4" d="M0 72L187 72"/><path d="M148.61 41.667c-1.302-1.653-3.685-1.824-4.679.03L135.45 57.51c-1.787 3.331.626 7.365 4.406 7.365h32.781c3.78 0 6.193-4.033 4.406-7.364L150.601 8.213c-1.885-3.515-6.925-3.516-8.812-.002-7.348 13.69-14.641 27.271-21.931 40.852a.294.294 0 01-.33.146.281.281 0 01-.217-.275V19.724c0-1.19-.643-2.432-1.533-3.221-2.682-2.375-6.778-.36-6.778 3.221V59.99c0 2.761 2.239 5.014 5 5.01 1.544-.001 3.081-.016 4.617-.068.428-.015.96-.727 1.23-1.232 5.242-9.707 10.458-19.43 15.673-29.147 1.416-2.637 2.83-5.274 4.267-7.953 1.886-3.515 6.925-3.514 8.81 0 4.048 7.549 8.064 15.038 12.109 22.578 1.787 3.331-.626 7.364-4.406 7.364h-6.79c-2.566 0-4.518-2.928-2.962-4.968 2.563-3.36 2.733-6.53.062-9.906z" fill="#EBEAEC"/><path d="M148.61 41.667c-1.302-1.653-3.685-1.824-4.679.03L135.45 57.51c-1.787 3.331.626 7.365 4.406 7.365h32.781c3.78 0 6.193-4.033 4.406-7.364L150.601 8.213c-1.885-3.515-6.925-3.516-8.812-.002-7.348 13.69-14.641 27.271-21.931 40.852a.294.294 0 01-.33.146.281.281 0 01-.217-.275V19.724c0-1.19-.643-2.432-1.533-3.221-2.682-2.375-6.778-.36-6.778 3.221V59.99c0 2.761 2.239 5.014 5 5.01 1.544-.001 3.081-.016 4.617-.068.428-.015.96-.727 1.23-1.232 5.242-9.707 10.458-19.43 15.673-29.147 1.416-2.637 2.83-5.274 4.267-7.953 1.886-3.515 6.925-3.514 8.81 0 4.048 7.549 8.064 15.038 12.109 22.578 1.787 3.331-.626 7.364-4.406 7.364h-6.79c-2.566 0-4.518-2.928-2.962-4.968 2.563-3.36 2.733-6.53.062-9.906z" fill="#EBEAEC"/><circle cx="115.5" cy="5.5" r="5.5" fill="#985293"/><path d="M9 65.5h1a4 4 0 004-4V37.373a4 4 0 00-1.44-3.072l-1-.834C8.956 31.297 5 33.15 5 36.54V61.5a4 4 0 004 4zM26.716 43.216L6.654 23.154A3.939 3.939 0 015.5 20.369c0-3.49 4.201-5.255 6.694-2.814L26.73 31.788a4 4 0 005.568.029L47.23 17.493c2.543-2.44 6.769-.637 6.769 2.886V61.5a4 4 0 01-4 4h-.5a4 4 0 01-4-4V39.944c0-3.533-4.246-5.331-6.783-2.873l-6.39 6.19a4 4 0 01-5.61-.045zM62 65.5h1a4 4 0 004-4V37.373a4 4 0 00-1.44-3.072l-1-.834C61.956 31.297 58 33.15 58 36.54V61.5a4 4 0 004 4zM79.716 43.216L59.654 23.154a3.938 3.938 0 01-1.154-2.785c0-3.49 4.201-5.255 6.694-2.814L79.73 31.788a4 4 0 005.568.029l14.933-14.324c2.543-2.44 6.769-.637 6.769 2.886V61.5a4 4 0 01-4 4h-.5a4 4 0 01-4-4V39.944c0-3.533-4.246-5.331-6.783-2.873l-6.39 6.19a4 4 0 01-5.61-.045z" fill="#EBEAEC"/></svg>