<svg width="53" height="52" fill="none" xmlns="http://www.w3.org/2000/svg"><rect x=".309" width="52" height="52" rx="26" fill="#985293"/><g clip-path="url(#a)"><path d="M23.15 33.438c6.415 0 9.924-5.316 9.924-9.918 0-.149 0-.3-.006-.448a7.105 7.105 0 001.741-1.809 7.073 7.073 0 01-2.007.55 3.507 3.507 0 001.538-1.93 6.94 6.94 0 01-2.218.843 3.491 3.491 0 00-5.945 3.18 9.908 9.908 0 01-7.19-3.642 3.494 3.494 0 001.081 4.655 3.53 3.53 0 01-1.579-.433v.048a3.494 3.494 0 002.797 3.419c-.3.082-.609.123-.92.122a3.44 3.44 0 01-.652-.06 3.488 3.488 0 003.26 2.419 7 7 0 01-4.336 1.495 6.712 6.712 0 01-.829-.048 9.928 9.928 0 005.34 1.556z" fill="#fff"/></g><defs><clipPath id="a"><path fill="#fff" transform="translate(17.81 17.5)" d="M0 0H17V17H0z"/></clipPath></defs></svg>