<svg width="53" height="52" fill="none" xmlns="http://www.w3.org/2000/svg"><rect x=".309" width="52" height="52" rx="26" fill="#985293"/><g clip-path="url(#a)"><path d="M32.26 19.971a8.345 8.345 0 00-5.957-2.471c-4.64 0-8.421 3.78-8.426 8.421 0 1.487.39 2.933 1.123 4.213L17.81 34.5l4.466-1.17a8.428 8.428 0 004.027 1.024h.004c4.641 0 8.422-3.78 8.426-8.425a8.391 8.391 0 00-2.474-5.958M26.303 32.93a6.985 6.985 0 01-3.566-.978l-.255-.153-2.65.695.708-2.585-.166-.267a6.97 6.97 0 01-1.07-3.724c0-3.853 3.142-6.995 7.003-6.995a6.97 6.97 0 014.952 2.051 6.967 6.967 0 012.048 4.952c-.004 3.866-3.146 7.004-7.004 7.004zm3.84-5.243c-.208-.105-1.242-.614-1.437-.686-.193-.07-.334-.105-.473.105-.14.21-.544.686-.666.823-.12.142-.246.158-.457.054-.209-.107-.888-.328-1.691-1.047-.627-.558-1.047-1.248-1.172-1.458-.121-.21-.012-.323.093-.428.093-.093.21-.246.315-.368.106-.12.141-.21.21-.35.07-.143.037-.264-.015-.369-.054-.105-.473-1.143-.65-1.562-.17-.413-.344-.356-.474-.361-.12-.007-.262-.007-.403-.007a.774.774 0 00-.562.262c-.194.21-.735.72-.735 1.757 0 1.038.755 2.036.861 2.177.104.142 1.481 2.266 3.595 3.18.499.217.892.346 1.199.444.505.161.96.137 1.324.085.404-.062 1.244-.51 1.422-1.002.174-.493.174-.914.12-1.002-.051-.09-.193-.142-.403-.247z" fill="#fff"/></g><defs><clipPath id="a"><path fill="#fff" transform="translate(17.81 17.5)" d="M0 0H17V17H0z"/></clipPath></defs></svg>